HIERARCHY
ROOT mixamorig:Hips
{
	OFFSET 0.000000 201.639420 0.000000
	CHANNELS 6 Xposition Yposition Zposition Xrotation Yrotation Zrotation
	JOINT mixamorig:Spine
	{
		OFFSET 0.006200 19.524994 -2.481800
		CHANNELS 3 Xrotation Yrotation Zrotation
		JOINT mixamorig:Spine1
		{
			OFFSET -0.000900 22.835007 -2.825400
			CHANNELS 3 Xrotation Yrotation Zrotation
			JOINT mixamorig:Spine2
			{
				OFFSET -0.020600 26.552490 -3.193300
				CHANNELS 3 Xrotation Yrotation Zrotation
				JOINT mixamorig:Neck
				{
					OFFSET -0.060000 30.701813 1.352200
					CHANNELS 3 Xrotation Yrotation Zrotation
					JOINT mixamorig:Head
					{
						OFFSET -0.087200 22.547607 3.670900
						CHANNELS 3 Xrotation Yrotation Zrotation
						JOINT mixamorig:HeadTop_End
						{
							OFFSET -0.830600 40.355194 7.893500
							CHANNELS 3 Xrotation Yrotation Zrotation
							End Site
							{
								OFFSET 0.000000 30.592346 0.000000
							}
						}
						JOINT mixamorig:RightEye
						{
							OFFSET -6.302100 18.118591 16.197100
							CHANNELS 3 Xrotation Yrotation Zrotation
							End Site
							{
								OFFSET 0.000000 30.592346 0.000000
							}
						}
						JOINT mixamorig:LeftEye
						{
							OFFSET 6.741500 18.382690 16.401899
							CHANNELS 3 Xrotation Yrotation Zrotation
							End Site
							{
								OFFSET 0.000000 30.592346 0.000000
							}
						}
					}
				}
				JOINT mixamorig:LeftShoulder
				{
					OFFSET 11.924900 18.230499 1.425400
					CHANNELS 3 Xrotation Yrotation Zrotation
					JOINT mixamorig:LeftArm
					{
						OFFSET 25.435989 -0.697632 -5.229300
						CHANNELS 3 Xrotation Yrotation Zrotation
						JOINT mixamorig:LeftForeArm
						{
							OFFSET 54.684776 0.000000 0.000000
							CHANNELS 3 Xrotation Yrotation Zrotation
							JOINT mixamorig:LeftHand
							{
								OFFSET 55.098175 0.000000 0.000000
								CHANNELS 3 Xrotation Yrotation Zrotation
								JOINT mixamorig:LeftHandMiddle1
								{
									OFFSET 23.369751 0.000000 0.000000
									CHANNELS 3 Xrotation Yrotation Zrotation
									JOINT mixamorig:LeftHandMiddle2
									{
										OFFSET 6.378677 0.000000 0.000000
										CHANNELS 3 Xrotation Yrotation Zrotation
										JOINT mixamorig:LeftHandMiddle3
										{
											OFFSET 6.148331 0.000000 0.000000
											CHANNELS 3 Xrotation Yrotation Zrotation
											JOINT mixamorig:LeftHandMiddle4
											{
												OFFSET 6.582504 0.000000 0.000000
												CHANNELS 3 Xrotation Yrotation Zrotation
												End Site
												{
													OFFSET -1.168900 6.395691 1.028606
												}
											}
										}
									}
								}
								JOINT mixamorig:LeftHandThumb1
								{
									OFFSET 7.235672 -3.848206 5.434273
									CHANNELS 3 Xrotation Yrotation Zrotation
									JOINT mixamorig:LeftHandThumb2
									{
										OFFSET 6.568451 -3.792297 3.792300
										CHANNELS 3 Xrotation Yrotation Zrotation
										JOINT mixamorig:LeftHandThumb3
										{
											OFFSET 6.063080 -3.500519 3.500518
											CHANNELS 3 Xrotation Yrotation Zrotation
											JOINT mixamorig:LeftHandThumb4
											{
												OFFSET 4.793182 -2.767334 2.767349
												CHANNELS 3 Xrotation Yrotation Zrotation
												End Site
												{
													OFFSET 0.101639 6.054260 1.275483
												}
											}
										}
									}
								}
								JOINT mixamorig:LeftHandIndex1
								{
									OFFSET 23.101074 -0.309540 4.992809
									CHANNELS 3 Xrotation Yrotation Zrotation
									JOINT mixamorig:LeftHandIndex2
									{
										OFFSET 6.226883 0.000000 0.000000
										CHANNELS 3 Xrotation Yrotation Zrotation
										JOINT mixamorig:LeftHandIndex3
										{
											OFFSET 6.094330 0.000000 0.000000
											CHANNELS 3 Xrotation Yrotation Zrotation
											JOINT mixamorig:LeftHandIndex4
											{
												OFFSET 5.482605 0.000000 0.000000
												CHANNELS 3 Xrotation Yrotation Zrotation
												End Site
												{
													OFFSET -1.427902 5.233032 0.797164
												}
											}
										}
									}
								}
								JOINT mixamorig:LeftHandRing1
								{
									OFFSET 22.299240 0.021149 -3.964172
									CHANNELS 3 Xrotation Yrotation Zrotation
									JOINT mixamorig:LeftHandRing2
									{
										OFFSET 6.321869 0.000000 0.000000
										CHANNELS 3 Xrotation Yrotation Zrotation
										JOINT mixamorig:LeftHandRing3
										{
											OFFSET 5.899796 0.000000 0.000000
											CHANNELS 3 Xrotation Yrotation Zrotation
											JOINT mixamorig:LeftHandRing4
											{
												OFFSET 6.517899 0.000000 0.000000
												CHANNELS 3 Xrotation Yrotation Zrotation
												End Site
												{
													OFFSET -1.637299 6.232208 0.980890
												}
											}
										}
									}
								}
								JOINT mixamorig:LeftHandPinky1
								{
									OFFSET 20.463791 -0.302338 -8.562233
									CHANNELS 3 Xrotation Yrotation Zrotation
									JOINT mixamorig:LeftHandPinky2
									{
										OFFSET 6.908646 0.000000 0.000000
										CHANNELS 3 Xrotation Yrotation Zrotation
										JOINT mixamorig:LeftHandPinky3
										{
											OFFSET 4.622849 0.000000 0.000000
											CHANNELS 3 Xrotation Yrotation Zrotation
											JOINT mixamorig:LeftHandPinky4
											{
												OFFSET 5.216080 0.000000 0.000000
												CHANNELS 3 Xrotation Yrotation Zrotation
												End Site
												{
													OFFSET -0.606308 5.116241 0.814926
												}
											}
										}
									}
								}
							}
						}
					}
				}
				JOINT mixamorig:RightShoulder
				{
					OFFSET -12.001300 18.284088 1.348900
					CHANNELS 3 Xrotation Yrotation Zrotation
					JOINT mixamorig:RightArm
					{
						OFFSET -25.308500 -0.751312 -5.164599
						CHANNELS 3 Xrotation Yrotation Zrotation
						JOINT mixamorig:RightForeArm
						{
							OFFSET -54.684429 0.000000 0.000000
							CHANNELS 3 Xrotation Yrotation Zrotation
							JOINT mixamorig:RightHand
							{
								OFFSET -55.150291 0.000000 0.000000
								CHANNELS 3 Xrotation Yrotation Zrotation
								JOINT mixamorig:RightHandMiddle1
								{
									OFFSET -23.317566 0.000000 0.000000
									CHANNELS 3 Xrotation Yrotation Zrotation
									JOINT mixamorig:RightHandMiddle2
									{
										OFFSET -6.378403 0.000000 0.000000
										CHANNELS 3 Xrotation Yrotation Zrotation
										JOINT mixamorig:RightHandMiddle3
										{
											OFFSET -6.148193 0.000000 0.000000
											CHANNELS 3 Xrotation Yrotation Zrotation
											JOINT mixamorig:RightHandMiddle4
											{
												OFFSET -6.583389 0.000000 0.000000
												CHANNELS 3 Xrotation Yrotation Zrotation
												End Site
												{
													OFFSET 1.171692 6.395905 1.029786
												}
											}
										}
									}
								}
								JOINT mixamorig:RightHandThumb1
								{
									OFFSET -7.190521 -3.860474 5.435846
									CHANNELS 3 Xrotation Yrotation Zrotation
									JOINT mixamorig:RightHandThumb2
									{
										OFFSET -6.567429 -3.791718 3.791708
										CHANNELS 3 Xrotation Yrotation Zrotation
										JOINT mixamorig:RightHandThumb3
										{
											OFFSET -6.062469 -3.500153 3.500166
											CHANNELS 3 Xrotation Yrotation Zrotation
											JOINT mixamorig:RightHandThumb4
											{
												OFFSET -4.792618 -2.767029 2.767022
												CHANNELS 3 Xrotation Yrotation Zrotation
												End Site
												{
													OFFSET -0.100327 6.053253 1.276754
												}
											}
										}
									}
								}
								JOINT mixamorig:RightHandIndex1
								{
									OFFSET -23.048981 -0.310791 4.992554
									CHANNELS 3 Xrotation Yrotation Zrotation
									JOINT mixamorig:RightHandIndex2
									{
										OFFSET -6.227539 0.000000 0.000000
										CHANNELS 3 Xrotation Yrotation Zrotation
										JOINT mixamorig:RightHandIndex3
										{
											OFFSET -6.095047 0.000000 0.000000
											CHANNELS 3 Xrotation Yrotation Zrotation
											JOINT mixamorig:RightHandIndex4
											{
												OFFSET -5.484772 0.000000 0.000000
												CHANNELS 3 Xrotation Yrotation Zrotation
												End Site
												{
													OFFSET 1.420593 5.237305 0.797056
												}
											}
										}
									}
								}
								JOINT mixamorig:RightHandRing1
								{
									OFFSET -22.246323 0.020569 -3.963762
									CHANNELS 3 Xrotation Yrotation Zrotation
									JOINT mixamorig:RightHandRing2
									{
										OFFSET -6.322128 0.000000 0.000000
										CHANNELS 3 Xrotation Yrotation Zrotation
										JOINT mixamorig:RightHandRing3
										{
											OFFSET -5.900024 0.000000 0.000000
											CHANNELS 3 Xrotation Yrotation Zrotation
											JOINT mixamorig:RightHandRing4
											{
												OFFSET -6.518356 0.000000 0.000000
												CHANNELS 3 Xrotation Yrotation Zrotation
												End Site
												{
													OFFSET 1.636398 6.232697 0.982186
												}
											}
										}
									}
								}
								JOINT mixamorig:RightHandPinky1
								{
									OFFSET -20.411011 -0.303314 -8.561701
									CHANNELS 3 Xrotation Yrotation Zrotation
									JOINT mixamorig:RightHandPinky2
									{
										OFFSET -6.907349 0.000000 0.000000
										CHANNELS 3 Xrotation Yrotation Zrotation
										JOINT mixamorig:RightHandPinky3
										{
											OFFSET -4.623840 0.000000 0.000000
											CHANNELS 3 Xrotation Yrotation Zrotation
											JOINT mixamorig:RightHandPinky4
											{
												OFFSET -5.218353 0.000000 0.000000
												CHANNELS 3 Xrotation Yrotation Zrotation
												End Site
												{
													OFFSET 0.602097 5.118835 0.816273
												}
											}
										}
									}
								}
							}
						}
					}
				}
			}
		}
	}
	JOINT mixamorig:LeftUpLeg
	{
		OFFSET 18.168400 -13.561905 -0.039000
		CHANNELS 3 Xrotation Yrotation Zrotation
		JOINT mixamorig:LeftLeg
		{
			OFFSET 0.577358 -80.825211 -3.695000
			CHANNELS 3 Xrotation Yrotation Zrotation
			JOINT mixamorig:LeftFoot
			{
				OFFSET -0.577356 -83.370262 -6.520700
				CHANNELS 3 Xrotation Yrotation Zrotation
				JOINT mixamorig:LeftToeBase
				{
					OFFSET 0.750401 -20.798306 25.135401
					CHANNELS 3 Xrotation Yrotation Zrotation
					JOINT mixamorig:LeftToe_End
					{
						OFFSET -0.000500 0.001200 19.917799
						CHANNELS 3 Xrotation Yrotation Zrotation
						End Site
						{
							OFFSET 0.000000 19.917805 0.000000
						}
					}
				}
			}
		}
	}
	JOINT mixamorig:RightUpLeg
	{
		OFFSET -18.162500 -13.585098 -0.041000
		CHANNELS 3 Xrotation Yrotation Zrotation
		JOINT mixamorig:RightLeg
		{
			OFFSET -0.595024 -80.945297 -3.631900
			CHANNELS 3 Xrotation Yrotation Zrotation
			JOINT mixamorig:RightFoot
			{
				OFFSET 0.595024 -83.218193 -6.561200
				CHANNELS 3 Xrotation Yrotation Zrotation
				JOINT mixamorig:RightToeBase
				{
					OFFSET -0.753601 -20.807106 25.115000
					CHANNELS 3 Xrotation Yrotation Zrotation
					JOINT mixamorig:RightToe_End
					{
						OFFSET 0.000299 0.001700 19.918200
						CHANNELS 3 Xrotation Yrotation Zrotation
						End Site
						{
							OFFSET 0.000000 19.918203 0.000000
						}
					}
				}
			}
		}
	}
}
MOTION
Frames: 4
Frame Time: 0.033333
25.029026 178.405869 46.676571 -188.996621 -228.553580 -173.626469 -1.801439 -2.604050 -2.366102 7.800877 -0.132954 3.327519 7.835004 -0.099531 3.274651 -3.794815 3.400463 -3.138196 -16.662407 12.422104 -0.580070 0.000001 0.000001 0.000000 0.000001 0.000001 0.000000 0.000001 0.000001 0.000000 0.569959 -2.998522 -2.512170 -3.289815 -7.386724 -66.083357 0.000007 -13.327029 0.000001 -9.664838 -14.121499 14.685610 0.062202 0.925342 -7.691526 0.273672 1.925599 -16.176378 0.422712 2.379691 -20.142670 -0.000003 0.000001 0.000003 -2.229667 22.637363 9.128532 4.766327 18.189065 1.497622 -1.384192 8.809155 7.207746 -0.000003 0.000001 0.000001 0.023291 0.567066 -4.704346 0.159214 1.475055 -12.320217 0.275722 1.932649 -16.237195 0.000002 0.000002 -0.000002 0.138054 1.374678 -11.469652 0.457262 2.471751 -20.958857 0.648204 2.921349 -25.015609 -0.000001 -0.000001 0.000001 1.221747 5.659711 -14.052420 0.642895 -1.164931 -25.237624 0.861137 3.339295 -28.913557 -0.000001 -0.000002 -0.000002 1.279070 6.244156 6.924538 1.031875 -5.056045 65.550951 0.000002 30.784434 -0.000000 -25.762172 3.856328 -21.666755 0.249002 -1.847648 15.349291 0.014197 -0.445060 3.654598 0.014062 0.442911 -3.636938 -0.000001 0.000000 -0.000001 -1.675471 -19.703952 -7.089798 5.118913 -13.930161 -0.598195 -0.382481 -9.992837 -3.138578 -0.000002 0.000001 0.000000 0.154194 -1.459102 12.064435 0.000004 -0.000001 -0.000007 0.057681 0.895573 -7.369715 -0.000000 -0.000003 -0.000001 0.399370 -2.326778 19.476083 0.072253 -1.001847 8.250109 0.000946 -0.114936 0.943164 -0.000001 0.000001 -0.000002 0.545655 -2.704680 22.807706 0.148803 -1.433634 11.850669 0.023079 -0.567235 4.659902 -0.000002 0.000000 -0.000003 -26.281204 12.733232 5.650145 84.631214 8.643462 4.551380 -3.230987 1.956439 -2.659771 -2.097649 0.109707 -3.203044 -0.000000 -0.000001 0.000001 -22.848026 -16.258396 9.400589 51.844093 -9.809169 -0.330403 -25.985622 -4.060784 -11.359001 -0.007528 -0.000009 -0.000002 0.000000 0.000000 0.000000 
28.251665 179.175491 46.662388 -187.753786 -219.098754 -174.001555 0.254946 8.379342 2.017064 7.024079 1.181150 0.119056 7.026850 1.191315 0.227965 -4.618113 2.319236 -2.782516 -16.419973 6.844116 1.502167 -0.000000 0.000001 -0.000000 -0.000000 0.000001 -0.000000 -0.000000 0.000001 -0.000000 0.455573 -1.385536 -2.781496 -3.862863 -12.416218 -67.380424 0.000015 -21.588269 0.000017 -9.351421 -10.746986 15.662467 0.031568 0.659874 -5.476562 0.270497 1.914602 -16.081330 0.410510 2.346192 -19.846822 0.000003 0.000003 0.000002 -2.229670 22.637364 9.128534 4.766325 18.189067 1.497625 -1.384199 8.809156 7.207745 -0.000001 -0.000000 -0.000000 0.005373 0.272444 -2.258213 0.172773 1.535819 -12.836547 0.272884 1.922904 -16.153080 -0.000002 0.000000 0.000001 0.095623 1.145782 -9.539685 0.421430 2.376206 -20.111823 0.619139 2.858317 -24.439250 0.000001 0.000001 -0.000001 1.055192 5.488090 -12.337862 0.570716 -1.323140 -23.798288 0.814939 3.254377 -28.110117 0.000001 -0.000002 0.000000 1.350769 7.166644 6.642826 10.623879 -7.121833 69.513458 -0.000005 32.836787 -0.000008 -12.593884 -1.310082 -22.229984 0.223305 -1.751436 14.531369 0.012078 -0.410453 3.369972 0.016373 0.477894 -3.924539 -0.000005 0.000000 -0.000003 -1.675463 -19.703950 -7.089800 5.118918 -13.930158 -0.598190 -0.382480 -9.992837 -3.138578 -0.000001 -0.000002 -0.000002 0.148043 -1.430071 11.820671 -0.000000 0.000013 -0.000024 0.063021 0.935994 -7.704213 0.000003 -0.000001 0.000000 0.339335 -2.149667 17.939352 0.061068 -0.921366 7.583064 0.000603 -0.092091 0.755654 0.000000 0.000000 -0.000001 0.450229 -2.465761 20.692581 0.125603 -1.318298 10.884761 0.021980 -0.553594 4.547435 0.000000 0.000001 0.000001 -28.290864 9.480270 3.587369 85.743804 9.212956 1.831296 -2.380735 3.604839 1.988137 -1.287894 0.020006 -1.360556 0.000001 -0.000003 0.000000 -21.561084 -13.363398 7.748376 52.413465 -8.262301 0.573353 -26.369854 1.779470 -11.015216 -0.000767 0.000003 -0.000004 -0.000000 -0.000000 -0.000000 
31.092808 179.994080 46.634727 -185.734318 -212.402286 -175.171293 0.496203 17.509654 5.513300 6.559230 2.339849 -2.110577 6.620366 2.320606 -1.888964 -4.964640 0.999981 -2.336863 -15.950904 1.555273 2.329673 -0.000001 -0.000001 -0.000000 -0.000001 -0.000001 -0.000000 -0.000001 -0.000001 -0.000000 0.452671 -0.654711 -4.312682 -7.291580 -18.575929 -68.390834 0.000004 -25.794312 0.000003 -4.594029 -8.452522 17.165444 0.010786 0.386019 -3.200405 0.252178 1.849938 -15.523873 0.406874 2.336107 -19.757818 -0.000002 -0.000001 -0.000001 -2.229667 22.637366 9.128537 4.766327 18.189069 1.497628 -1.384194 8.809159 7.207750 -0.000003 0.000000 -0.000003 0.000818 -0.106682 0.884028 0.166078 1.506088 -12.583878 0.281032 1.950804 -16.394030 -0.000001 -0.000001 -0.000002 0.073136 1.002973 -8.341275 0.383992 2.271427 -19.188380 0.593623 2.801588 -23.922580 -0.000004 0.000000 0.000003 1.022950 5.453639 -11.999620 0.513001 -1.457826 -22.585489 0.766969 3.163090 -27.253203 -0.000002 0.000001 -0.000000 1.360661 7.413243 6.257939 18.435283 -7.663076 73.351082 -0.000010 31.726703 0.000007 2.874903 -5.156576 -21.790923 0.157438 -1.474172 12.191024 0.009711 -0.368071 3.021636 0.017369 0.492196 -4.042159 0.000001 -0.000000 0.000002 -1.675465 -19.703948 -7.089798 5.118914 -13.930163 -0.598192 -0.382484 -9.992840 -3.138574 0.000005 -0.000000 -0.000000 0.086571 -1.096011 9.031861 0.000008 0.000017 -0.000062 0.063195 0.937322 -7.715427 -0.000000 0.000002 -0.000006 0.275668 -1.942106 16.155474 0.048842 -0.824464 6.781630 0.000302 -0.065822 0.540011 0.000001 0.000000 -0.000001 0.394370 -2.312601 19.352533 0.100323 -1.179255 9.724506 0.019211 -0.517706 4.252106 0.000003 -0.000000 0.000001 -31.304284 3.117032 0.996026 87.233994 9.293342 -0.319456 -1.408461 4.137317 3.945668 -1.502073 0.000011 0.000005 -0.000000 0.000001 -0.000003 -21.669395 -12.088798 6.731154 52.306473 -4.248983 0.486334 -26.166602 3.916154 -11.692944 -0.000012 0.000007 0.000008 0.000000 -0.000000 0.000000 
33.612301 181.017990 46.846664 -183.343710 -208.441364 -176.866342 -0.804924 22.030791 7.649032 6.249680 2.948159 -3.043414 6.374065 2.911763 -2.781275 -5.363008 0.199712 -1.164838 -14.934033 -0.405235 1.663413 -0.000000 -0.000002 -0.000000 -0.000000 -0.000002 -0.000000 -0.000000 -0.000002 -0.000000 0.481579 -0.228545 -5.706467 -11.133070 -24.119720 -70.097651 0.000002 -25.701271 0.000010 3.250395 -6.757702 18.526972 0.003453 0.218501 -1.810859 0.217476 1.720198 -14.409934 0.405178 2.331366 -19.716009 -0.000000 0.000002 0.000003 -2.229671 22.637363 9.128536 4.766328 18.189060 1.497626 -1.384195 8.809158 7.207745 0.000001 0.000002 -0.000003 0.011607 -0.400600 3.321450 0.135453 1.361723 -11.360123 0.289888 1.980644 -16.652319 -0.000003 0.000002 0.000002 0.071683 0.993013 -8.257798 0.346622 2.161133 -18.222074 0.573100 2.754917 -23.499180 -0.000000 -0.000001 -0.000000 1.115871 5.551837 -12.968694 0.474240 -1.552984 -21.735153 0.727577 3.085548 -26.530610 0.000001 0.000002 0.000001 1.320144 7.134065 5.817721 22.454102 -7.824884 75.372613 -0.000004 29.775356 0.000001 15.396571 -7.620080 -21.347242 0.094251 -1.143312 9.425301 0.007655 -0.326873 2.683306 0.016588 0.480989 -3.950014 -0.000001 -0.000002 -0.000002 -1.675463 -19.703948 -7.089798 5.118915 -13.930156 -0.598196 -0.382482 -9.992843 -3.138573 0.000000 0.000001 0.000001 0.027138 -0.614973 5.053080 -0.000004 0.000005 0.000033 0.057973 0.897875 -7.388717 -0.000000 -0.000002 0.000004 0.234738 -1.794923 14.900718 0.038835 -0.735314 6.045412 0.000111 -0.037898 0.310884 0.000000 0.000001 0.000001 0.392566 -2.307442 19.307666 0.079752 -1.052286 8.668661 0.015102 -0.459031 3.769403 -0.000001 0.000000 0.000000 -34.791085 -3.276599 -1.387983 89.065667 9.334887 -0.736664 -2.588414 5.001920 3.845976 -2.017343 0.000000 -0.000002 0.000000 0.000001 0.000000 -22.286904 -12.055063 6.814700 51.348252 -0.032195 -0.582616 -25.560284 3.691059 -12.299566 -0.000011 0.000002 0.000004 0.000000 0.000002 -0.000000 
